<?xml version="1.0" standalone="no"?>
<!DOCTYPE svg PUBLIC "-//W3C//DTD SVG 1.1//EN" "http://www.w3.org/Graphics/SVG/1.1/DTD/svg11.dtd" >
<svg xmlns="http://www.w3.org/2000/svg">
<metadata>Generated by IcoMoon</metadata>
<defs>
<font id="icomoon" horiz-adv-x="1024">
<font-face units-per-em="1024" ascent="960" descent="-64" />
<missing-glyph horiz-adv-x="1024" />
<glyph unicode="&#x20;" horiz-adv-x="512" d="" />
<glyph unicode="&#xe900;" glyph-name="arrow-next" d="M1003.52 509.44v0l-440.32 430.080c-30.72 30.72-81.92 30.72-122.88 0-30.72-40.96-30.72-92.16 0-122.88l296.96-286.72h-737.28c0 0 0-40.96 0-81.92s0-51.2 0-81.92h737.28l-296.96-286.72c-30.72-30.72-30.72-81.92 0-122.88 30.72-30.72 81.92-30.72 122.88 0l440.32 430.080c30.72 30.72 30.72 92.16 0 122.88z" />
<glyph unicode="&#xe901;" glyph-name="arrow-prev" horiz-adv-x="1126" d="M20.48 386.56v0l440.32-430.080c30.72-30.72 81.92-30.72 122.88 0 30.72 40.96 30.72 92.16 0 122.88l-296.96 286.72h737.28c0 0 0 40.96 0 81.92s0 51.2 0 81.92h-737.28l296.96 286.72c30.72 30.72 30.72 81.92 0 122.88-30.72 30.72-81.92 30.72-122.88 0l-440.32-430.080c-30.72-30.72-30.72-92.16 0-122.88z" />
<glyph unicode="&#xe902;" glyph-name="caret" horiz-adv-x="1877" d="M1860.267 857.6l-102.4 85.333c0 17.067-17.067 17.067-34.133 17.067s-34.133 0-51.2-17.067l-733.867-699.733-733.867 699.733c-17.067 17.067-34.133 17.067-51.2 17.067s-34.133 0-34.133-17.067l-102.4-85.333c-17.067-17.067-17.067-34.133-17.067-51.2 0 0 0-17.067 17.067-34.133l870.4-819.2c17.067-17.067 34.133-17.067 51.2-17.067s34.133 0 51.2 17.067l870.4 819.2c17.067 17.067 17.067 34.133 17.067 34.133 0 17.067 0 34.133-17.067 51.2z" />
<glyph unicode="&#xe903;" glyph-name="check" horiz-adv-x="1229" d="M155.307 437.76l-145.067-145.067 348.16-348.16 870.4 870.4-145.067 145.067-725.333-725.333-203.093 203.093z" />
<glyph unicode="&#xe904;" glyph-name="close" d="M851.537 938.442l-323.368-323.368c-10.779-10.779-21.558-10.779-43.116 0l-323.368 323.368c-21.558 21.558-53.895 21.558-75.453 0l-64.674-75.453c-21.558-21.558-21.558-53.895 0-75.453l323.368-323.368c10.779-10.779 10.779-21.558 0-43.116l-323.368-323.368c-21.558-21.558-21.558-53.895 0-75.453l75.453-75.453c21.558-21.558 53.895-21.558 75.453 0l323.368 323.368c10.779 10.779 21.558 10.779 43.116 0l323.368-323.368c21.558-21.558 53.895-21.558 75.453 0l75.453 75.453c21.558 21.558 21.558 53.895 0 75.453l-323.368 323.368c-10.779 10.779-10.779 21.558 0 43.116l323.368 323.368c21.558 21.558 21.558 53.895 0 75.453l-86.232 75.453c-21.558 32.337-53.895 32.337-75.453 0z" />
<glyph unicode="&#xe905;" glyph-name="fb" horiz-adv-x="482" d="M391.529 791.341h90.353v162.635c-18.071 0-66.259 6.024-126.494 6.024-126.494 0-216.847-84.329-216.847-240.941v-144.565h-138.541v-180.706h138.541v-457.788h168.659v457.788h132.518l24.094 180.706h-150.588v126.494c0 54.212 12.047 90.353 78.306 90.353z" />
<glyph unicode="&#xe906;" glyph-name="instagram" d="M746.918 960h-469.835c-150.588 0-277.082-126.494-277.082-277.082v-469.835c0-150.588 126.494-277.082 277.082-277.082h469.835c150.588 0 277.082 126.494 277.082 277.082v469.835c0 150.588-126.494 277.082-277.082 277.082zM512 170.918c-156.612 0-277.082 126.494-277.082 277.082 0 156.612 126.494 277.082 277.082 277.082 156.612 0 277.082-126.494 277.082-277.082 0-156.612-120.471-277.082-277.082-277.082zM512 670.871c-120.471 0-222.871-96.376-222.871-222.871 0-120.471 96.376-222.871 222.871-222.871 120.471 0 222.871 96.376 222.871 222.871 0 120.471-102.4 222.871-222.871 222.871z" />
<glyph unicode="&#xe907;" glyph-name="menu-services" horiz-adv-x="1365" d="M0 106.667h170.667v-170.667h-170.667v170.667zM0 533.333h170.667v-170.667h-170.667v170.667zM597.333 533.333h170.667v-170.667h-170.667v170.667zM597.333 106.667h170.667v-170.667h-170.667v170.667zM1194.667 106.667h170.667v-170.667h-170.667v170.667zM1194.667 533.333h170.667v-170.667h-170.667v170.667zM0 960h170.667v-170.667h-170.667v170.667zM597.333 960h170.667v-170.667h-170.667v170.667zM1194.667 960h170.667v-170.667h-170.667v170.667z" />
<glyph unicode="&#xe908;" glyph-name="minus" d="M51.2 499.2h921.6c28.277 0 51.2-22.923 51.2-51.2s-22.923-51.2-51.2-51.2h-921.6c-28.277 0-51.2 22.923-51.2 51.2s22.923 51.2 51.2 51.2z" />
<glyph unicode="&#xe909;" glyph-name="more" horiz-adv-x="1103" d="M661.050 4.805c4.595-1.938 10.108-0.646 13.478 2.907l424.877 465.163c4.592 5.169 4.592 12.921 0 18.089l-424.877 465.161c-3.37 3.553-8.884 4.845-13.478 2.907s-7.658-6.784-7.658-11.952v-262.622h-52.994c-331.138 0-600.398-283.942-600.398-633.132v-103.369c0-5.498 3.982-10.342 9.802-11.634h0.306c0.613 0 0.919-0.323 1.838-0.323 4.595 0 9.802 3.23 11.947 8.074 98.024 207.061 295.604 335.63 514.933 335.63h114.259v-262.942c0.306-5.175 3.37-10.019 7.964-11.957z" />
<glyph unicode="&#xe90a;" glyph-name="next" horiz-adv-x="512" d="M499.2 396.8l-384-435.2c-25.6-25.6-64-25.6-89.6 0s-25.6 64-12.8 102.4l345.6 384-345.6 384c-12.8 38.4-12.8 76.8 0 102.4 25.6 25.6 64 25.6 89.6 0l384-435.2c25.6-12.8 25.6-38.4 25.6-51.2s0-38.4-12.8-51.2z" />
<glyph unicode="&#xe90b;" glyph-name="next-long" horiz-adv-x="4352" d="M4311.919 402.745c24.994 24.993 24.994 65.516 0 90.51l-407.287 407.293c-24.994 24.994-65.519 24.994-90.513 0s-24.994-65.516 0-90.509l362.035-362.039-362.035-362.035c-24.994-24.994-24.994-65.519 0-90.513s65.519-24.994 90.513 0l407.287 407.293zM0 384h4266.667v128h-4266.667v-128z" />
<glyph unicode="&#xe90c;" glyph-name="ok" d="M201.428 410.41c-26.154-51.413 3.542-75.989 71.296-117.973 57.6-35.587 137.173-48.598 188.288-53.802-20.95-20.137 75.050 72.192-201.43-193.753-58.624-56.187 35.755-146.342 94.336-91.347l158.592 152.962c60.715-58.41 118.912-114.393 158.595-153.172 58.621-55.212 152.955 34.171 94.973 91.347-4.349 4.138-214.912 206.125-202.069 193.747 51.758 5.21 130.136 18.992 187.052 53.808l-0.042 0.042c67.753 42.195 97.449 66.729 71.68 118.142-15.577 29.184-57.561 53.589-113.453 11.392 0 0-75.475-57.813-197.205-57.813-121.77 0-197.206 57.813-197.206 57.813-55.85 42.411-98.005 17.792-113.408-11.392zM511.964 441.942c148.396 0 269.565 115.968 269.565 258.73 0 143.36-121.169 259.328-269.565 259.328-148.438 0-269.611-115.968-269.611-259.328 0-142.762 121.173-258.73 269.611-258.73zM511.964 828.629c72.917 0 132.397-57.216 132.397-127.957 0-70.144-59.48-127.36-132.397-127.36s-132.395 57.216-132.395 127.36c-0.043 70.784 59.435 127.957 132.395 127.957z" />
<glyph unicode="&#xe90d;" glyph-name="plus" d="M972.796 499.2h-409.592v409.603c0 28.256-22.942 51.197-51.208 51.197-28.254 0-51.196-22.941-51.196-51.197v-409.603h-409.603c-28.256 0-51.197-22.942-51.197-51.196 0-28.266 22.941-51.208 51.197-51.208h409.603v-409.592c0-28.266 22.942-51.208 51.196-51.208 28.266 0 51.208 22.942 51.208 51.208v409.592h409.592c28.266 0 51.208 22.942 51.208 51.208 0 28.254-22.942 51.196-51.208 51.196z" />
<glyph unicode="&#xe90e;" glyph-name="prev" horiz-adv-x="512" d="M12.8 499.2l384 435.2c25.6 25.6 64 25.6 89.6 0s25.6-64 12.8-102.4l-345.6-384 345.6-384c12.8-38.4 12.8-76.8 0-102.4-25.6-25.6-64-25.6-89.6 0l-384 435.2c-25.6 12.8-25.6 38.4-25.6 51.2s0 38.4 12.8 51.2z" />
<glyph unicode="&#xe90f;" glyph-name="prev-long" horiz-adv-x="4352" d="M40.078 493.255c-24.993-24.993-24.993-65.516 0-90.51l407.294-407.293c24.993-24.994 65.516-24.994 90.51 0s24.993 65.519 0 90.513l-362.039 362.035 362.039 362.039c24.994 24.994 24.994 65.516 0 90.51s-65.516 24.994-90.51 0l-407.294-407.294zM4352 512h-4266.667v-128h4266.667v128z" />
<glyph unicode="&#xe910;" glyph-name="quote" horiz-adv-x="1208" d="M385.969 500.513c-30.195 9.19-59.077 13.128-87.959 13.128-44.636 0-81.395-10.503-110.277-22.318 27.569 102.4 94.523 278.318 228.431 298.010 11.815 1.313 22.318 10.503 26.256 22.318l28.882 103.713c2.626 9.19 1.313 18.379-3.938 26.256s-13.128 13.128-22.318 14.441c-9.19 1.313-19.692 2.626-30.195 2.626-160.164 0-319.015-166.728-385.969-406.974-39.385-140.472-51.2-351.836 45.949-484.431 53.826-74.831 132.595-114.215 234.995-118.154 0 0 1.313 0 1.313 0 126.031 0 236.308 84.021 270.441 204.8 19.692 72.205 10.503 148.349-26.256 213.99-36.759 64.328-95.836 111.59-169.354 132.595zM1171.036 367.918c-36.759 64.328-95.836 111.59-169.354 132.595-30.195 9.19-59.077 13.128-87.959 13.128-44.636 0-81.395-10.503-110.277-22.318 27.569 102.4 94.523 278.318 228.431 298.010 11.815 1.313 22.318 10.503 26.256 22.318l28.882 103.713c2.626 9.19 1.313 18.379-3.938 26.256s-13.128 13.128-22.318 14.441c-9.19 1.313-19.692 2.626-30.195 2.626-160.164 0-319.015-166.728-385.969-406.974-39.385-140.472-51.2-351.836 45.949-484.431 53.826-74.831 132.595-114.215 234.995-118.154 0 0 1.313 0 1.313 0 126.031 0 236.308 84.021 270.441 204.8 19.692 72.205 10.503 148.349-26.256 213.99z" />
<glyph unicode="&#xe911;" glyph-name="succses" horiz-adv-x="1126" d="M838.4 89.6h-684.8v684.8h533.76l153.6 153.6h-840.96v-992h992v634.88l-153.6-153.6v-327.68zM321.28 568.32l-108.8-108.8 261.12-261.12 652.8 652.8-108.8 108.8-544-544-152.32 152.32z" />
<glyph unicode="&#xe912;" glyph-name="twitter" horiz-adv-x="1170" d="M1170.286 847.419c-43.059-19.095-89.329-32.004-137.896-37.806 49.562 29.716 87.64 76.763 105.56 132.833-46.402-27.516-97.777-47.494-152.466-58.264-43.791 46.662-106.203 75.819-175.25 75.819-154.98 0-268.907-144.625-233.893-294.812-199.534 10.011-376.46 105.601-494.871 250.858-62.899-107.891-32.63-249.082 74.307-320.546-39.359 1.245-76.395 12.050-108.757 30.034-2.602-111.236 77.115-215.257 192.571-238.463-33.792-9.19-70.805-11.295-108.427-4.104 30.553-95.389 119.231-164.804 224.291-166.735-100.944-79.111-228.082-114.439-355.455-99.43 106.244-68.118 232.455-107.871 368.040-107.871 445.755 0 697.607 376.515 682.43 714.198 46.914 33.853 87.618 76.142 119.815 124.289z" />
<glyph unicode="&#xe913;" glyph-name="vk" horiz-adv-x="2048" d="M2025.244 49.778c0 11.378-34.133 68.267-204.8 204.8s-147.911 113.778 56.889 352.711c136.533 147.911 182.044 238.933 170.667 284.444-22.756 34.133-113.778 22.756-113.778 22.756h-307.2c0 0-22.756 0-34.133-11.378s-22.756-34.133-22.756-34.133-45.511-113.778-113.778-204.8c-136.533-204.8-193.422-216.178-216.178-204.8-56.889 34.133-34.133 113.778-34.133 182.044 0 193.422 34.133 284.444-68.267 307.2-45.511 0-68.267 11.378-147.911 11.378-113.778 0-204.8 0-250.311-22.756-45.511-11.378-68.267-45.511-56.889-45.511 22.756 0 68.267-11.378 91.022-45.511 34.133-34.133 34.133-125.156 34.133-125.156s22.756-227.556-45.511-261.689c-45.511-11.378-102.4 22.756-216.178 204.8-68.267 91.022-113.778 204.8-113.778 204.8s-11.378 22.756-22.756 34.133c-22.756 11.378-45.511 11.378-45.511 11.378h-295.822c0 0-45.511 0-56.889-22.756-22.756-11.378-11.378-45.511-11.378-45.511s227.556-466.489 489.244-705.422c238.933-216.178 512-204.8 512-204.8h125.156c0 0 34.133 0 56.889 22.756 22.756 11.378 11.378 45.511 11.378 45.511s0 147.911 68.267 170.667c79.644 22.756 170.667-136.533 273.067-204.8 91.022-45.511 147.911-34.133 147.911-34.133h273.067c0 0 136.533 11.378 68.267 113.778z" />
</font>
</defs>
</svg>
